<svg width="644" height="169" viewBox="0 0 644 169" fill="none" xmlns="http://www.w3.org/2000/svg">
<path d="M0.472 74V4.88H10.84V34.16H60.76V4.88H71.224V74H60.76V44.72H10.84V74H0.472ZM94.1283 74C91.8243 74 89.7123 73.424 87.7923 72.272C85.9363 71.12 84.4323 69.616 83.2803 67.76C82.1923 65.904 81.6483 63.824 81.6483 61.52V40.976H127.824V31.088C127.824 30.448 127.6 29.904 127.152 29.456C126.704 28.944 126.16 28.688 125.52 28.688H81.6483V18.32H125.808C128.112 18.32 130.192 18.896 132.048 20.048C133.968 21.136 135.472 22.64 136.56 24.56C137.712 26.48 138.288 28.56 138.288 30.8V74H94.1283ZM94.4163 63.632H127.824V50.672H92.0163V61.232C92.0163 61.872 92.2403 62.448 92.6883 62.96C93.2003 63.408 93.7763 63.632 94.4163 63.632ZM147.278 74V18.32H191.438C193.742 18.32 195.822 18.896 197.678 20.048C199.598 21.2 201.102 22.704 202.19 24.56C203.342 26.416 203.918 28.496 203.918 30.8V74H193.55V31.088C193.55 30.448 193.294 29.904 192.782 29.456C192.334 28.944 191.79 28.688 191.15 28.688H160.046C159.406 28.688 158.83 28.944 158.318 29.456C157.87 29.904 157.646 30.448 157.646 31.088V74H147.278ZM225.369 74C223.065 74 220.985 73.424 219.129 72.272C217.273 71.12 215.769 69.616 214.617 67.76C213.465 65.904 212.889 63.824 212.889 61.52V60.08H223.257V61.232C223.257 61.872 223.481 62.448 223.929 62.96C224.441 63.408 225.017 63.632 225.657 63.632H256.761C257.401 63.632 257.945 63.408 258.393 62.96C258.841 62.448 259.065 61.872 259.065 61.232V53.744C259.065 53.104 258.841 52.56 258.393 52.112C257.945 51.6 257.401 51.344 256.761 51.344H225.369C223.065 51.344 220.985 50.8 219.129 49.712C217.273 48.56 215.769 47.056 214.617 45.2C213.465 43.28 212.889 41.168 212.889 38.864V30.8C212.889 28.496 213.465 26.416 214.617 24.56C215.769 22.704 217.273 21.2 219.129 20.048C220.985 18.896 223.065 18.32 225.369 18.32H257.049C259.353 18.32 261.433 18.896 263.289 20.048C265.209 21.2 266.713 22.704 267.801 24.56C268.953 26.416 269.529 28.496 269.529 30.8V32.24H259.065V31.088C259.065 30.448 258.841 29.904 258.393 29.456C257.945 28.944 257.401 28.688 256.761 28.688H225.657C225.017 28.688 224.441 28.944 223.929 29.456C223.481 29.904 223.257 30.448 223.257 31.088V38.576C223.257 39.216 223.481 39.792 223.929 40.304C224.441 40.752 225.017 40.976 225.657 40.976H257.049C259.353 40.976 261.433 41.552 263.289 42.704C265.209 43.792 266.713 45.296 267.801 47.216C268.953 49.072 269.529 51.152 269.529 53.456V61.52C269.529 63.824 268.953 65.904 267.801 67.76C266.713 69.616 265.209 71.12 263.289 72.272C261.433 73.424 259.353 74 257.049 74H225.369ZM291.566 74C289.262 74 287.15 73.424 285.23 72.272C283.374 71.12 281.87 69.616 280.718 67.76C279.63 65.904 279.086 63.824 279.086 61.52V40.976H325.262V31.088C325.262 30.448 325.038 29.904 324.59 29.456C324.142 28.944 323.598 28.688 322.958 28.688H279.086V18.32H323.246C325.55 18.32 327.63 18.896 329.486 20.048C331.406 21.136 332.91 22.64 333.998 24.56C335.15 26.48 335.726 28.56 335.726 30.8V74H291.566ZM291.854 63.632H325.262V50.672H289.454V61.232C289.454 61.872 289.678 62.448 290.126 62.96C290.638 63.408 291.214 63.632 291.854 63.632ZM322.798 96.08V85.616H346.318C346.958 85.616 347.502 85.392 347.95 84.944C348.462 84.496 348.718 83.952 348.718 83.312V18.32H359.086V83.6C359.086 85.904 358.51 87.984 357.358 89.84C356.27 91.76 354.766 93.264 352.846 94.352C350.99 95.504 348.91 96.08 346.606 96.08H322.798ZM348.718 10.448V0.0799961H359.086V10.448H348.718ZM381.566 74C379.262 74 377.15 73.424 375.23 72.272C373.374 71.12 371.87 69.616 370.718 67.76C369.63 65.904 369.086 63.824 369.086 61.52V40.976H415.262V31.088C415.262 30.448 415.038 29.904 414.59 29.456C414.142 28.944 413.598 28.688 412.958 28.688H369.086V18.32H413.246C415.55 18.32 417.63 18.896 419.486 20.048C421.406 21.136 422.91 22.64 423.998 24.56C425.15 26.48 425.726 28.56 425.726 30.8V74H381.566ZM381.854 63.632H415.262V50.672H379.454V61.232C379.454 61.872 379.678 62.448 380.126 62.96C380.638 63.408 381.214 63.632 381.854 63.632Z" fill="url(#paint0_linear_1_3)"/>
<path d="M12.856 169C10.552 169 8.44 168.456 6.52 167.368C4.664 166.216 3.16 164.712 2.008 162.856C0.92 160.936 0.376 158.824 0.376 156.52V112.36C0.376 110.056 0.92 107.976 2.008 106.12C3.16 104.2 4.664 102.696 6.52 101.608C8.44 100.456 10.552 99.88 12.856 99.88H56.92C59.224 99.88 61.336 100.456 63.256 101.608C65.176 102.696 66.68 104.2 67.768 106.12C68.92 107.976 69.496 110.056 69.496 112.36V116.488H59.032V112.648C59.032 112.008 58.808 111.464 58.36 111.016C57.912 110.504 57.336 110.248 56.632 110.248H13.144C12.504 110.248 11.928 110.504 11.416 111.016C10.968 111.464 10.744 112.008 10.744 112.648V156.232C10.744 156.872 10.968 157.448 11.416 157.96C11.928 158.408 12.504 158.632 13.144 158.632H56.632C57.336 158.632 57.912 158.408 58.36 157.96C58.808 157.448 59.032 156.872 59.032 156.232V141.544H42.712V131.08H69.496V156.52C69.496 158.824 68.92 160.936 67.768 162.856C66.68 164.712 65.176 166.216 63.256 167.368C61.336 168.456 59.224 169 56.92 169H12.856ZM92.2555 169C89.9515 169 87.8395 168.424 85.9195 167.272C84.0635 166.12 82.5595 164.616 81.4075 162.76C80.3195 160.904 79.7755 158.824 79.7755 156.52V113.32H90.1435V156.232C90.1435 156.872 90.3675 157.448 90.8155 157.96C91.3275 158.408 91.9035 158.632 92.5435 158.632H123.648C124.288 158.632 124.832 158.408 125.28 157.96C125.792 157.448 126.048 156.872 126.048 156.232V113.32H136.416V156.52C136.416 158.824 135.84 160.904 134.688 162.76C133.6 164.616 132.096 166.12 130.176 167.272C128.32 168.424 126.24 169 123.936 169H92.2555ZM146.903 169V113.32H191.063C193.367 113.32 195.447 113.896 197.303 115.048C199.223 116.2 200.727 117.704 201.815 119.56C202.967 121.416 203.543 123.496 203.543 125.8V169H193.175V126.088C193.175 125.448 192.919 124.904 192.407 124.456C191.959 123.944 191.415 123.688 190.775 123.688H159.671C159.031 123.688 158.455 123.944 157.943 124.456C157.495 124.904 157.271 125.448 157.271 126.088V169H146.903ZM226.035 169C223.731 169 221.619 168.424 219.699 167.272C217.843 166.12 216.339 164.616 215.187 162.76C214.099 160.904 213.555 158.824 213.555 156.52V135.976H259.731V126.088C259.731 125.448 259.507 124.904 259.059 124.456C258.611 123.944 258.067 123.688 257.427 123.688H213.555V113.32H257.715C260.019 113.32 262.099 113.896 263.955 115.048C265.875 116.136 267.379 117.64 268.467 119.56C269.619 121.48 270.195 123.56 270.195 125.8V169H226.035ZM226.323 158.632H259.731V145.672H223.923V156.232C223.923 156.872 224.147 157.448 224.595 157.96C225.107 158.408 225.683 158.632 226.323 158.632ZM290.244 169C287.94 169 285.86 168.424 284.004 167.272C282.148 166.12 280.644 164.616 279.492 162.76C278.34 160.904 277.764 158.824 277.764 156.52V155.08H288.132V156.232C288.132 156.872 288.356 157.448 288.804 157.96C289.316 158.408 289.892 158.632 290.532 158.632H321.636C322.276 158.632 322.82 158.408 323.268 157.96C323.716 157.448 323.94 156.872 323.94 156.232V148.744C323.94 148.104 323.716 147.56 323.268 147.112C322.82 146.6 322.276 146.344 321.636 146.344H290.244C287.94 146.344 285.86 145.8 284.004 144.712C282.148 143.56 280.644 142.056 279.492 140.2C278.34 138.28 277.764 136.168 277.764 133.864V125.8C277.764 123.496 278.34 121.416 279.492 119.56C280.644 117.704 282.148 116.2 284.004 115.048C285.86 113.896 287.94 113.32 290.244 113.32H321.924C324.228 113.32 326.308 113.896 328.164 115.048C330.084 116.2 331.588 117.704 332.676 119.56C333.828 121.416 334.404 123.496 334.404 125.8V127.24H323.94V126.088C323.94 125.448 323.716 124.904 323.268 124.456C322.82 123.944 322.276 123.688 321.636 123.688H290.532C289.892 123.688 289.316 123.944 288.804 124.456C288.356 124.904 288.132 125.448 288.132 126.088V133.576C288.132 134.216 288.356 134.792 288.804 135.304C289.316 135.752 289.892 135.976 290.532 135.976H321.924C324.228 135.976 326.308 136.552 328.164 137.704C330.084 138.792 331.588 140.296 332.676 142.216C333.828 144.072 334.404 146.152 334.404 148.456V156.52C334.404 158.824 333.828 160.904 332.676 162.76C331.588 164.616 330.084 166.12 328.164 167.272C326.308 168.424 324.228 169 321.924 169H290.244ZM354.751 169C352.447 169 350.367 168.424 348.511 167.272C346.655 166.12 345.151 164.616 343.999 162.76C342.847 160.904 342.271 158.824 342.271 156.52V125.8C342.271 123.496 342.847 121.416 343.999 119.56C345.151 117.704 346.655 116.2 348.511 115.048C350.367 113.896 352.447 113.32 354.751 113.32H386.431C388.735 113.32 390.815 113.896 392.671 115.048C394.591 116.136 396.095 117.64 397.183 119.56C398.335 121.48 398.911 123.56 398.911 125.8V146.344H352.639V156.232C352.639 156.872 352.863 157.448 353.311 157.96C353.823 158.408 354.399 158.632 355.039 158.632H398.911V169H354.751ZM352.639 136.648H388.447V126.088C388.447 125.448 388.223 124.904 387.775 124.456C387.327 123.944 386.783 123.688 386.143 123.688H355.039C354.399 123.688 353.823 123.944 353.311 124.456C352.863 124.904 352.639 125.448 352.639 126.088V136.648ZM409.028 169V95.08H419.396V135.976H431.876L452.708 113.32H464.612V115.24L441.092 141.16L464.612 167.08V169H452.708L431.876 146.344H419.396V169H409.028ZM483.378 169C481.074 169 478.962 168.424 477.042 167.272C475.186 166.12 473.682 164.616 472.53 162.76C471.442 160.904 470.898 158.824 470.898 156.52V135.976H517.074V126.088C517.074 125.448 516.85 124.904 516.402 124.456C515.954 123.944 515.41 123.688 514.77 123.688H470.898V113.32H515.058C517.362 113.32 519.442 113.896 521.298 115.048C523.218 116.136 524.722 117.64 525.81 119.56C526.962 121.48 527.538 123.56 527.538 125.8V169H483.378ZM483.666 158.632H517.074V145.672H481.266V156.232C481.266 156.872 481.49 157.448 481.938 157.96C482.45 158.408 483.026 158.632 483.666 158.632ZM536.336 169V125.8C536.336 123.496 536.912 121.416 538.064 119.56C539.216 117.704 540.72 116.2 542.576 115.048C544.496 113.896 546.576 113.32 548.816 113.32H579.92V123.688H549.104C548.464 123.688 547.888 123.944 547.376 124.456C546.928 124.904 546.704 125.448 546.704 126.088V169H536.336ZM599.066 169C596.762 169 594.65 168.424 592.73 167.272C590.874 166.12 589.37 164.616 588.218 162.76C587.13 160.904 586.586 158.824 586.586 156.52V135.976H632.762V126.088C632.762 125.448 632.538 124.904 632.09 124.456C631.642 123.944 631.098 123.688 630.458 123.688H586.586V113.32H630.746C633.05 113.32 635.13 113.896 636.986 115.048C638.906 116.136 640.41 117.64 641.498 119.56C642.65 121.48 643.226 123.56 643.226 125.8V169H599.066ZM599.354 158.632H632.762V145.672H596.954V156.232C596.954 156.872 597.178 157.448 597.626 157.96C598.138 158.408 598.714 158.632 599.354 158.632Z" fill="white"/>
<defs>
<linearGradient id="paint0_linear_1_3" x1="7" y1="41.4583" x2="404" y2="41.4583" gradientUnits="userSpaceOnUse">
<stop stop-color="#FF56F6"/>
<stop offset="0.317992" stop-color="#B936EE"/>
<stop offset="0.630208" stop-color="#3BACE2"/>
<stop offset="1" stop-color="#4046AF"/>
</linearGradient>
</defs>
</svg>
